<?xml version="1.0" encoding="UTF-8" standalone="no"?>
<svg
   data-name="Skill Symbols"
   viewBox="0 0 24 25"
   version="1.1"
   id="svg4"
   sodipodi:docname="skill_icon_I.svg"
   inkscape:version="1.4.3 (0d15f75042, 2025-12-25)"
   width="24"
   height="25"
   xmlns:inkscape="http://www.inkscape.org/namespaces/inkscape"
   xmlns:sodipodi="http://sodipodi.sourceforge.net/DTD/sodipodi-0.dtd"
   xmlns="http://www.w3.org/2000/svg"
   xmlns:svg="http://www.w3.org/2000/svg">
  <defs
     id="defs4" />
  <sodipodi:namedview
     id="namedview4"
     pagecolor="#505050"
     bordercolor="#ffffff"
     borderopacity="1"
     inkscape:showpageshadow="0"
     inkscape:pageopacity="0"
     inkscape:pagecheckerboard="1"
     inkscape:deskcolor="#505050"
     inkscape:zoom="35.208333"
     inkscape:cx="11.985799"
     inkscape:cy="12"
     inkscape:window-width="1920"
     inkscape:window-height="1048"
     inkscape:window-x="0"
     inkscape:window-y="0"
     inkscape:window-maximized="1"
     inkscape:current-layer="svg4" />
  <g
     data-name="Book SVG"
     id="g4"
     transform="translate(0.02840237,0.65325451)">
    <g
       data-name="Book Compound FINAL"
       id="g3">
      <path
         d="m 17.58,18.23 c 0,0 -0.01,-0.07 -0.02,-0.1 -0.04,-0.26 -0.08,-0.5 -0.13,-0.71 -0.38,-1.83 -0.86,-2.21 -1.25,-2.76 v 0 c -0.63,0.03 -4.91,0.61 -4.91,0.61 0.46,0.45 1.04,1.65 1.43,3.02 0.17,0.59 0.31,1.21 0.39,1.82 0,0 0,0.01 0,0.01 0.25,-0.15 2.18,-1.82 2.18,-1.82 0.08,0.03 0.28,0.11 0.53,0.22 0.18,0.08 0.39,0.17 0.6,0.26 0.03,0.01 0.06,0.03 0.09,0.04 0.1,0.04 0.2,0.09 0.3,0.13 0.43,0.19 0.81,0.35 0.93,0.39 0,0 0,0 0,0 -0.03,-0.3 -0.07,-0.58 -0.11,-0.83 -0.01,-0.09 -0.03,-0.19 -0.04,-0.28 z"
         fill="#ffffff"
         data-name="ribbon fill"
         id="path1" />
      <path
         d="m 19.46,15.11 c -0.2,-0.35 -0.35,-0.68 -0.51,-0.92 -0.1,-0.16 -0.2,-0.34 -0.2,-0.39 0.03,-0.24 0.04,-0.51 0.15,-0.76 0.05,-0.14 0.19,-0.41 0.23,-0.43 0.52,-0.18 0.72,-0.14 1.04,-0.28 0.16,-0.07 0.06,-0.17 0.05,-0.19 C 20.08,11.85 16.46,5.83 15.75,4.69 15.71,4.62 15.68,4.57 15.56,4.54 c -0.12,-0.03 -0.23,0 -0.23,0 L 5.46,5.86 C 4.94,5.98 4.5,6.41 4.32,7.09 4.13,7.78 4.13,9.95 4.33,10.4 c 2.58,4.18 3.43,6.3 4.65,7.84 0.46,0.32 1.65,0.3 2.92,0.15 0,0 0,0 0.01,0 -0.08,-0.33 -0.18,-0.66 -0.28,-0.96 -1.36,0.12 -2.41,0.1 -2.53,-0.23 -0.32,-0.88 -0.65,-2.31 0.25,-3.03 0.9,-0.72 9.15,-1.48 9.15,-1.48 -0.66,1.36 0.14,3.6 0.14,3.6 0,0 -0.28,0.06 -0.72,0.15 0.09,0.28 0.18,0.58 0.25,0.89 0.32,-0.03 0.65,-0.06 0.92,-0.09 0.39,-0.05 0.77,-0.07 1.08,-0.1 0.06,0 0.16,-0.02 0.18,-0.1 0.03,-0.08 0.04,-0.15 0.01,-0.21 -0.26,-0.52 -0.65,-1.27 -0.92,-1.72 z"
         fill="#ffffff"
         data-name="book fill"
         id="path2" />
      <path
         d="M 20.17,15.13 23.3,12 17.65,6.35 C 16.84,5 16.12,3.94 15.87,3.84 15.76,3.8 15.49,3.79 15.11,3.81 L 11.95,0.65 7.83,4.77 C 6.52,4.98 5.48,5.16 5.19,5.21 4.24,5.39 3.5,6.45 3.49,7.24 3.49,7.28 3.44,8.2 3.47,9.12 L 0.6,11.99 11.95,23.34 15.92,19.4 h 0.01 c 1.32,0.64 2.34,1.01 2.45,0.93 0.21,-0.15 0.12,-0.74 0.12,-1 -0.02,-0.42 -0.07,-0.84 -0.14,-1.24 v 0 c 0,0 0.08,-0.01 0.13,-0.02 0.82,-0.11 1.53,-0.18 2.02,-0.27 0.67,-0.13 0.5,-0.84 0.5,-0.89 -0.02,-0.49 -0.43,-1.16 -0.84,-1.79 z m -2.45,4.21 c -0.12,-0.04 -0.5,-0.21 -0.93,-0.39 -0.1,-0.04 -0.2,-0.09 -0.3,-0.13 -0.03,-0.01 -0.06,-0.03 -0.09,-0.04 -0.21,-0.09 -0.42,-0.18 -0.6,-0.26 -0.25,-0.11 -0.45,-0.19 -0.53,-0.22 0,0 -1.92,1.66 -2.18,1.82 0,0 0,-0.01 0,-0.01 -0.08,-0.61 -0.21,-1.23 -0.39,-1.82 -0.4,-1.37 -0.98,-2.57 -1.43,-3.02 0,0 4.28,-0.58 4.91,-0.61 v 0 c 0.39,0.55 0.87,0.94 1.25,2.77 0.04,0.21 0.09,0.46 0.13,0.71 0,0.04 0.01,0.06 0.02,0.1 0.01,0.09 0.03,0.19 0.04,0.28 0.04,0.26 0.07,0.53 0.11,0.83 0,0 0,0 0,0 z m 2.66,-2.3 c -0.03,0.08 -0.13,0.09 -0.18,0.1 -0.31,0.03 -0.69,0.05 -1.08,0.1 -0.26,0.03 -0.6,0.06 -0.92,0.09 -0.08,-0.31 -0.16,-0.61 -0.25,-0.89 0.44,-0.09 0.72,-0.15 0.72,-0.15 0,0 -0.81,-2.24 -0.14,-3.6 0,0 -8.25,0.77 -9.15,1.48 -0.9,0.72 -0.57,2.15 -0.25,3.03 0.12,0.33 1.17,0.35 2.53,0.23 0.11,0.31 0.2,0.63 0.28,0.96 0,0 0,0 -0.01,0 C 10.66,18.54 9.47,18.56 9.01,18.24 7.79,16.7 6.94,14.58 4.36,10.4 4.15,9.95 4.16,7.78 4.35,7.09 4.53,6.41 4.97,5.98 5.49,5.86 l 9.87,-1.32 c 0,0 0.1,-0.03 0.23,0 0.12,0.03 0.15,0.08 0.19,0.15 0.71,1.14 4.33,7.16 4.47,7.45 0,0.02 0.1,0.12 -0.05,0.19 -0.32,0.14 -0.51,0.1 -1.04,0.28 -0.04,0.01 -0.18,0.28 -0.23,0.43 -0.1,0.24 -0.12,0.52 -0.15,0.76 0,0.05 0.09,0.23 0.2,0.39 0.15,0.24 0.31,0.57 0.51,0.92 0.28,0.45 0.66,1.2 0.92,1.72 0.03,0.06 0.01,0.13 -0.01,0.21 z"
         fill="#522149"
         id="path3" />
    </g>
  </g>
</svg>
